<svg xmlns="http://www.w3.org/2000/svg" viewBox="0 0 100 100" fill="none">
  <defs>
    <linearGradient id="g" x1="0%" y1="0%" x2="100%" y2="100%">
      <stop offset="0%" stop-color="#e2b857"/>
      <stop offset="100%" stop-color="#b8923a"/>
    </linearGradient>
    <filter id="glow">
      <feGaussianBlur stdDeviation="1.5"/>
      <feMerge><feMergeNode/><feMergeNode in="SourceGraphic"/></feMerge>
    </filter>
  </defs>
  <rect width="100" height="100" rx="20" fill="#0d0c15"/>
  <circle cx="50" cy="50" r="48" stroke="url(#g)" stroke-width="0.8" opacity="0.6"/>
  <circle cx="50" cy="50" r="3" fill="url(#g)" filter="url(#glow)"/>
  <path d="M50,50 Q55,48 57,52 Q60,57 55,59 Q48,62 46,56 Q43,48 50,45 Q58,42 63,48 Q68,56 63,61 Q56,68 50,63 Q42,57 40,50 Q37,42 45,38 Q55,34 62,40 Q70,48 67,57"
        fill="none" stroke="url(#g)" stroke-width="1.5" opacity="0.8"/>
  <line x1="50" y1="6" x2="50" y2="16" stroke="url(#g)" stroke-width="1.5"/>
  <line x1="94" y1="50" x2="84" y2="50" stroke="url(#g)" stroke-width="1.5"/>
  <line x1="50" y1="94" x2="50" y2="84" stroke="url(#g)" stroke-width="1.5"/>
  <line x1="6" y1="50" x2="16" y2="50" stroke="url(#g)" stroke-width="1.5"/>
</svg>